<mxfile host="app.diagrams.net" modified="2024-06-12T01:06:28.009Z" agent="Mozilla/5.0 (Windows NT 10.0; Win64; x64) AppleWebKit/537.36 (KHTML, like Gecko) Chrome/125.0.0.0 Safari/537.36" etag="fCWoWgmg0hxQRjjvTruS" version="24.5.3" type="github">
  <diagram name="Page-1" id="80bArgX30Amww6LzvKEX">
    <mxGraphModel dx="1195" dy="643" grid="1" gridSize="10" guides="1" tooltips="1" connect="1" arrows="1" fold="1" page="1" pageScale="1" pageWidth="850" pageHeight="1100" math="0" shadow="0">
      <root>
        <mxCell id="0" />
        <mxCell id="1" parent="0" />
        <mxCell id="D9S5lB8WnKE-5JFESrGs-2" value="Home Page" style="ellipse;whiteSpace=wrap;html=1;aspect=fixed;" vertex="1" parent="1">
          <mxGeometry x="350" width="120" height="120" as="geometry" />
        </mxCell>
        <mxCell id="D9S5lB8WnKE-5JFESrGs-3" value="" style="endArrow=none;html=1;rounded=0;" edge="1" parent="1" target="D9S5lB8WnKE-5JFESrGs-4">
          <mxGeometry width="50" height="50" relative="1" as="geometry">
            <mxPoint x="470" y="60" as="sourcePoint" />
            <mxPoint x="610" y="60" as="targetPoint" />
          </mxGeometry>
        </mxCell>
        <mxCell id="D9S5lB8WnKE-5JFESrGs-4" value="&lt;p style=&quot;margin:0px;margin-top:6px;text-align:center;&quot;&gt;&lt;b&gt;Home Page Components&lt;/b&gt;&lt;/p&gt;&lt;hr size=&quot;1&quot; style=&quot;border-style:solid;&quot;&gt;&lt;p style=&quot;margin:0px;margin-left:8px;&quot;&gt;&lt;font face=&quot;Comic Sans MS&quot;&gt;+ renderPage(): Dynamically renders items from the menuArray.&amp;nbsp;&lt;br&gt;Each menu item has a UUID. Add data attributes to elements related to the menu item. Set the data attributes to have the value of the UUID. That way we can just have one event listener for the entire document.&lt;/font&gt;&lt;/p&gt;&lt;p style=&quot;margin:0px;margin-left:8px;&quot;&gt;&lt;br&gt;&lt;/p&gt;" style="align=left;overflow=fill;html=1;dropTarget=0;whiteSpace=wrap;" vertex="1" parent="1">
          <mxGeometry x="550" y="15" width="260" height="205" as="geometry" />
        </mxCell>
        <mxCell id="D9S5lB8WnKE-5JFESrGs-8" value="" style="endArrow=classic;html=1;rounded=0;" edge="1" parent="1">
          <mxGeometry width="50" height="50" relative="1" as="geometry">
            <mxPoint x="409.71" y="120" as="sourcePoint" />
            <mxPoint x="409.71" y="260" as="targetPoint" />
          </mxGeometry>
        </mxCell>
        <mxCell id="D9S5lB8WnKE-5JFESrGs-10" value="Add Menu Items" style="rhombus;whiteSpace=wrap;html=1;" vertex="1" parent="1">
          <mxGeometry x="370" y="260" width="80" height="80" as="geometry" />
        </mxCell>
        <mxCell id="D9S5lB8WnKE-5JFESrGs-11" value="" style="endArrow=none;html=1;rounded=0;" edge="1" parent="1">
          <mxGeometry width="50" height="50" relative="1" as="geometry">
            <mxPoint x="450" y="299.8" as="sourcePoint" />
            <mxPoint x="540" y="299.8" as="targetPoint" />
          </mxGeometry>
        </mxCell>
        <mxCell id="D9S5lB8WnKE-5JFESrGs-12" value="&lt;p style=&quot;margin:0px;margin-top:6px;text-align:center;&quot;&gt;&lt;b&gt;document Event Listener&lt;/b&gt;&lt;/p&gt;&lt;hr size=&quot;1&quot; style=&quot;border-style:solid;&quot;&gt;&lt;p style=&quot;margin:0px;margin-left:8px;&quot;&gt;- Determines what menu item was clicked and whether it was a add or remove. Calls the respective functions&lt;/p&gt;&lt;p style=&quot;margin:0px;margin-left:8px;&quot;&gt;- Rerender the &quot;You order&quot; section. If 0 items set the display to none. Use a JS Map to store item counts.&lt;/p&gt;" style="align=left;overflow=fill;html=1;dropTarget=0;whiteSpace=wrap;" vertex="1" parent="1">
          <mxGeometry x="540" y="225" width="270" height="150" as="geometry" />
        </mxCell>
      </root>
    </mxGraphModel>
  </diagram>
</mxfile>
